<svg xmlns="http://www.w3.org/2000/svg" viewBox="0 0 1600 1000" role="img" aria-label="Abstract dusk landscape">
  <defs>
    <linearGradient id="sky" x1="0" y1="0" x2="0" y2="1">
      <stop offset="0" stop-color="#29365f"/>
      <stop offset=".52" stop-color="#bd7180"/>
      <stop offset="1" stop-color="#f0a36f"/>
    </linearGradient>
    <linearGradient id="water" x1="0" y1="0" x2="1" y2="1">
      <stop stop-color="#263c57"/>
      <stop offset="1" stop-color="#0b192c"/>
    </linearGradient>
    <radialGradient id="sun">
      <stop stop-color="#fff6cd"/>
      <stop offset=".32" stop-color="#ffd88d" stop-opacity=".88"/>
      <stop offset="1" stop-color="#ffd88d" stop-opacity="0"/>
    </radialGradient>
  </defs>
  <rect width="1600" height="1000" fill="url(#sky)"/>
  <circle cx="1110" cy="485" r="230" fill="url(#sun)"/>
  <path d="M0 610 240 420 430 570 665 355 910 600 1150 460 1600 625V1000H0Z" fill="#18243a" opacity=".88"/>
  <path d="M0 650c250-35 390 52 630 8s415-54 970 12v330H0Z" fill="url(#water)"/>
  <path d="M1020 650h235l-70 350h-95Z" fill="#f7bb79" opacity=".2"/>
  <g fill="none" stroke="#dbe7ff" stroke-opacity=".12">
    <path d="M40 740c270-42 470 46 700 0s510-35 820 6"/>
    <path d="M0 835c260-33 485 34 760-5s485-24 840 12"/>
  </g>
</svg>
