<svg xmlns="http://www.w3.org/2000/svg" viewBox="0 0 1600 1000" role="img" aria-label="Abstract blue-hour landscape">
  <defs>
    <linearGradient id="sky" x1="0" y1="0" x2="1" y2="1">
      <stop stop-color="#071425"/>
      <stop offset=".48" stop-color="#183d62"/>
      <stop offset="1" stop-color="#5f7ba0"/>
    </linearGradient>
    <radialGradient id="moon">
      <stop stop-color="#f4f7df"/>
      <stop offset=".22" stop-color="#b8d5e6" stop-opacity=".72"/>
      <stop offset="1" stop-color="#8ec8ec" stop-opacity="0"/>
    </radialGradient>
    <linearGradient id="lake" x1="0" y1="0" x2="0" y2="1">
      <stop stop-color="#235274"/>
      <stop offset="1" stop-color="#06131e"/>
    </linearGradient>
  </defs>
  <rect width="1600" height="1000" fill="url(#sky)"/>
  <circle cx="350" cy="245" r="175" fill="url(#moon)"/>
  <g fill="#d9edff" opacity=".58">
    <circle cx="860" cy="120" r="2"/><circle cx="1090" cy="210" r="2.5"/><circle cx="1320" cy="115" r="1.8"/>
    <circle cx="1470" cy="280" r="2"/><circle cx="650" cy="250" r="1.5"/><circle cx="1240" cy="340" r="1.4"/>
  </g>
  <path d="M0 630 260 400l190 180 225-320 285 360 210-245 430 270v355H0Z" fill="#0b1b2c"/>
  <path d="M0 690c260-65 445 65 720 5s475-50 880 5v300H0Z" fill="url(#lake)"/>
  <path d="M250 690h200l-55 310H300Z" fill="#a8dff6" opacity=".1"/>
  <g fill="none" stroke="#bce9ff" stroke-opacity=".1">
    <path d="M0 775c285-42 450 55 735 0s545-36 865 12"/>
    <path d="M30 900c310-40 470 36 725-8s505-30 815 4"/>
  </g>
</svg>
